<?xml version="1.0" encoding="UTF-8"?>
<svg width="115px" height="49px" viewBox="0 0 115 49" version="1.1" xmlns="http://www.w3.org/2000/svg" xmlns:xlink="http://www.w3.org/1999/xlink">
    <!-- Generator: Sketch 49.2 (51160) - http://www.bohemiancoding.com/sketch -->
    <title>logo-full</title>
    <desc>Created with Sketch.</desc>
    <defs></defs>
    <g id="website" stroke="none" stroke-width="1" fill="none" fill-rule="evenodd">
        <g id="hours-location" transform="translate(-24.000000, -21.000000)">
            <g id="logo-full" transform="translate(24.000000, 20.000000)">
                <g id="logo-name" transform="translate(0.000000, 0.868852)">
                    <path d="M115,19 C115,31.9995901 104.927233,37.5632184 95.4145065,37.5632184 L19.5854935,37.5632184 C10.072767,37.5632184 1.56295116e-13,31.9995901 1.56295116e-13,19 C1.56295116e-13,6.00040989 10.072767,0.436781609 19.5854935,0.436781609 L57.5,0.436781609 L95.4145065,0.436781609 C104.927233,0.436781609 115,6.00040989 115,19 Z" id="Combined-Shape" fill="#F33531"></path>
                    <path d="M9.5158209,18.9318621 C9.5158209,17.3477928 9.79044501,15.912834 10.3397015,14.6269425 C10.888958,13.341051 11.6395972,12.2415371 12.5916418,11.3283678 C13.5436864,10.4151985 14.6650682,9.71169596 15.9558209,9.21783908 C17.2465736,8.72398221 18.6242713,8.47705747 20.0889552,8.47705747 C21.5902563,8.47705747 23.0091475,8.72398221 24.3456716,9.21783908 C25.6821957,9.71169596 26.7990005,10.3779268 27.6961194,11.2165517 L23.6865672,16.1364598 C23.3203962,15.6519209 22.8626893,15.2838633 22.3134328,15.0322759 C21.7641764,14.7806884 21.1508492,14.6548966 20.4734328,14.6548966 C19.9241764,14.6548966 19.4115447,14.7527347 18.9355224,14.9484138 C18.4595001,15.1440929 18.0429869,15.4282893 17.6859701,15.8010115 C17.3289534,16.1737337 17.0497523,16.6256525 16.8483582,17.1567816 C16.6469642,17.6879107 16.5462687,18.2795983 16.5462687,18.9318621 C16.5462687,19.5841259 16.6515412,20.1664955 16.8620896,20.6789885 C17.0726379,21.1914815 17.3564161,21.6340824 17.7134328,22.0068046 C18.0704495,22.3795268 18.4869628,22.6637232 18.9629851,22.8594023 C19.4390074,23.0550814 19.9424849,23.1529195 20.4734328,23.1529195 C21.2240834,23.1529195 21.86945,22.994515 22.4095522,22.6777011 C22.9496544,22.3608873 23.3753218,21.9881707 23.6865672,21.5595402 L27.6961194,26.4514943 C26.817309,27.3460275 25.7371208,28.0588479 24.4555224,28.589977 C23.1739239,29.1211061 21.7184161,29.3866667 20.0889552,29.3866667 C18.6242713,29.3866667 17.2465736,29.135083 15.9558209,28.631908 C14.6650682,28.1287331 13.5436864,27.4159127 12.5916418,26.4934253 C11.6395972,25.5709379 10.888958,24.471424 10.3397015,23.1948506 C9.79044501,21.9182771 9.5158209,20.4972952 9.5158209,18.9318621 Z M43.9986567,21.307954 L38.6708955,21.307954 L38.6708955,28.8275862 L32.1347761,28.8275862 L32.1347761,9.03613793 L38.6434328,9.03613793 L38.6434328,15.7451034 L43.971194,15.7451034 L43.971194,9.03613793 L50.5347761,9.03613793 L50.5347761,28.8275862 L43.9986567,28.8275862 L43.9986567,21.307954 Z M56.7859701,9.03613793 L63.3770148,9.03613793 L63.3770148,28.8275862 L56.7859701,28.8275862 L56.7859701,9.03613793 Z M75.7249252,14.2076322 L75.7249252,16.6396322 L77.4825372,16.6396322 C77.9402509,16.6396322 78.3155705,16.5324762 78.6085073,16.3181609 C78.9014441,16.1038457 79.0479103,15.7730597 79.0479103,15.3257931 C79.0479103,14.9530709 78.89229,14.6735335 78.5810446,14.4871724 C78.2697993,14.3008113 77.8578631,14.2076322 77.3452237,14.2076322 L75.7249252,14.2076322 Z M75.7249252,20.9165977 L75.7249252,23.6001839 L77.674776,23.6001839 C78.1874154,23.6001839 78.6039286,23.48371 78.9243282,23.2507586 C79.2447278,23.0178073 79.4049252,22.6777034 79.4049252,22.2304368 C79.4049252,21.9695313 79.3362692,21.7552192 79.1989551,21.5874943 C79.061641,21.4197693 78.8922894,21.2846595 78.6908954,21.1821609 C78.4895013,21.0796623 78.2743791,21.009778 78.0455222,20.9725057 C77.8166654,20.9352335 77.6015431,20.9165977 77.4001491,20.9165977 L75.7249252,20.9165977 Z M82.3434327,18.5405057 C82.8011464,18.6523224 83.2496991,18.8340217 83.6891043,19.0856092 C84.1285095,19.3371967 84.5221374,19.6540058 84.8699999,20.036046 C85.2178623,20.4180862 85.4924864,20.8606871 85.6938804,21.3638621 C85.8952745,21.867037 85.99597,22.4261119 85.99597,23.0411034 C85.99597,24.1219977 85.7808478,25.0304944 85.3505969,25.7666207 C84.920346,26.502747 84.3527894,27.0990935 83.6479103,27.5556782 C82.9430312,28.0122628 82.1374671,28.3383898 81.2311939,28.534069 C80.3249207,28.7297481 79.3957758,28.8275862 78.4437312,28.8275862 L69.6282088,28.8275862 L69.6282088,9.03613793 L77.6198506,9.03613793 C78.4071182,9.03613793 79.2447218,9.09670438 80.1326864,9.21783908 C81.0206511,9.33897379 81.8399463,9.58123956 82.5905969,9.94464368 C83.3412474,10.3080478 83.9637287,10.8391689 84.4580596,11.538023 C84.9523904,12.2368771 85.1995521,13.1546916 85.1995521,14.2914943 C85.1995521,15.3537524 84.9386592,16.2296364 84.4168655,16.9191724 C83.8950719,17.6087084 83.2039345,18.1211937 82.3434327,18.4566437 L82.3434327,18.5405057 Z M97.6573132,29.3866667 C96.8700456,29.3866667 96.096521,29.3167823 95.3367162,29.1770115 C94.5769114,29.0372407 93.8445804,28.8322466 93.1397013,28.562023 C92.4348221,28.2917994 91.7711472,27.9749903 91.1486565,27.6115862 C90.5261658,27.2481821 89.9677635,26.8428528 89.4734326,26.3955862 L93.4555222,21.9788506 C93.9132359,22.4820255 94.5219861,22.9292854 95.2817908,23.3206437 C96.0415956,23.712002 96.8242744,23.9076782 97.6298505,23.9076782 C97.9960215,23.9076782 98.3301475,23.8424528 98.6322386,23.712 C98.9343297,23.5815472 99.0853729,23.3392815 99.0853729,22.9851954 C99.0853729,22.7988343 99.0350252,22.6404298 98.9343282,22.509977 C98.8336311,22.3795243 98.6551255,22.2444145 98.3988058,22.1046437 C98.1424861,21.9648729 97.7900518,21.8111273 97.3414923,21.6434023 C96.8929329,21.4756773 96.3299534,21.2800011 95.6525371,21.0563678 C94.9934293,20.8327345 94.3617939,20.567174 93.7576117,20.2596782 C93.1534296,19.9521824 92.6179126,19.5748068 92.1510446,19.1275402 C91.6841766,18.6802736 91.313434,18.1444935 91.0388058,17.5201839 C90.7641775,16.8958743 90.6268655,16.1457822 90.6268655,15.2698851 C90.6268655,14.0399019 90.8740272,12.9962955 91.368358,12.1390345 C91.8626888,11.2817735 92.4989014,10.5782709 93.2770147,10.0285057 C94.0551281,9.47874055 94.9293482,9.08272918 95.8997013,8.84045977 C96.8700544,8.59819036 97.8312388,8.47705747 98.7832834,8.47705747 C100.064882,8.47705747 101.369346,8.72864116 102.696716,9.23181609 C104.024086,9.73499102 105.191239,10.4617884 106.198209,11.4122299 L102.133731,15.6332874 C101.694326,15.0742041 101.154232,14.650239 100.513433,14.3613793 C99.8726334,14.0725196 99.2959228,13.928092 98.7832834,13.928092 C98.3072611,13.928092 97.9227873,13.9979763 97.6298505,14.1377471 C97.3369138,14.2775179 97.1904476,14.5058068 97.1904476,14.8226207 C97.1904476,15.1207984 97.3414908,15.3444284 97.6435819,15.4935172 C97.945673,15.6426061 98.4354193,15.8289644 99.1128356,16.0525977 C99.8085605,16.276231 100.540891,16.5371326 101.309851,16.8353103 C102.07881,17.1334881 102.788255,17.5201815 103.438209,17.9954023 C104.088162,18.4706231 104.623679,19.0529927 105.044776,19.7425287 C105.465873,20.4320648 105.676418,21.2893129 105.676418,22.3142989 C105.676418,23.5070098 105.442987,24.5459573 104.976119,25.4311724 C104.509251,26.3163876 103.895924,27.0525028 103.136119,27.6395402 C102.376314,28.2265776 101.520403,28.6645196 100.568358,28.9533793 C99.6163135,29.242239 98.6459749,29.3866667 97.6573132,29.3866667 Z" id="CHIBS" fill="#FFFFFF"></path>
                </g>
                <g id="logo-text-black" transform="translate(21.026119, 39.098361)" fill="#191919">
                    <path d="M5.86921181,3.03333333 C6.54223245,3.03333333 7.14722597,3.16969102 7.68421053,3.44241049 L7.42645923,4.62768533 L7.30832322,4.68013111 C7.0935294,4.53328217 6.85725974,4.41790259 6.59950715,4.33398891 C6.34175457,4.25007522 6.07684616,4.20811901 5.80477399,4.20811901 C4.66636674,4.20811901 4.09717165,4.93885637 4.09717165,6.400353 C4.09717165,7.19054018 4.24573515,7.78317167 4.5428666,8.17826525 C4.83999805,8.57335884 5.27494902,8.77090267 5.84773254,8.77090267 C6.11264492,8.77090267 6.38650293,8.73069464 6.6693148,8.65027736 C6.95212666,8.56986008 7.20808546,8.45972502 7.43719887,8.31986889 L7.56607452,8.39329299 L7.4479385,9.59954614 C6.90379416,9.84429438 6.33101923,9.96666667 5.72959653,9.96666667 C4.69858619,9.96666667 3.91281058,9.67297318 3.37224613,9.08557741 C2.83168168,8.49818163 2.56140351,7.65556104 2.56140351,6.55769037 C2.56140351,5.43884127 2.8495809,4.57174623 3.42594432,3.95637922 C4.00230774,3.34101222 4.81672209,3.03333333 5.86921181,3.03333333 Z M13.1624587,8.29854785 L13.2135011,9.96666667 L11.9272311,9.96666667 L11.9782736,8.42211221 L11.9680651,7.91755776 L10.8145055,7.90726073 L9.78344775,7.92785479 L9.77323926,8.29854785 L9.82428172,9.96666667 L8.5380117,9.96666667 L8.58905416,8.42211221 L8.5380117,4.76666667 L9.8446987,4.76666667 L9.80386473,6.82607261 L10.8961734,6.84666667 L11.9578566,6.83636964 L11.9272311,4.76666667 L13.2339181,4.76666667 L13.1624587,8.29854785 Z M16.1521838,8.29854785 L16.2022113,9.96666667 L14.9415205,9.96666667 L14.9915479,8.42211221 L14.9415205,4.76666667 L16.2222222,4.76666667 L16.1521838,8.29854785 Z M20.7084044,4.76666667 C21.2407021,4.76666667 21.7375058,4.85333247 22.1988304,5.02666667 L21.9646206,6.08666667 L21.8581616,6.13666667 C21.6949237,6.02999947 21.5032994,5.94666697 21.283283,5.88666667 C21.0632667,5.82666637 20.8432536,5.79666667 20.6232372,5.79666667 C20.1903018,5.79666667 19.8673794,5.91499882 19.6544603,6.15166667 C19.4415413,6.38833452 19.3350833,6.75999747 19.3350833,7.26666667 C19.3350833,8.36667217 19.7857553,8.91666667 20.6871126,8.91666667 C20.9000317,8.91666667 21.1200448,8.89000027 21.3471584,8.83666667 C21.5742721,8.78333307 21.7800908,8.71000047 21.9646206,8.61666667 L22.0817255,8.67666667 L21.9752665,9.72666667 C21.5565257,9.88666747 21.0987566,9.96666667 20.6019454,9.96666667 C19.7289773,9.96666667 19.0653895,9.74666887 18.6111622,9.30666667 C18.1569348,8.86666447 17.9298246,8.23333747 17.9298246,7.40666667 C17.9298246,6.56666247 18.1711292,5.91666897 18.6537458,5.45666667 C19.1363623,4.99666437 19.8212417,4.76666667 20.7084044,4.76666667 Z M25.6591235,7.17987055 C26.2993177,8.00110443 26.9957822,8.80886334 27.748538,9.60317152 L27.7168802,9.75462783 C27.2384933,9.86906206 26.8023236,9.93974097 26.408358,9.96666667 L26.2395164,9.89598706 C25.5430414,9.01417035 24.9134093,8.16265783 24.3506012,7.34142395 L24.329496,8.24006472 L24.382259,9.87579288 L23.0526316,9.87579288 L23.1053946,8.36122977 L23.0526316,4.77676375 L24.4033642,4.77676375 L24.3506012,7.07889968 L25.8068598,5.29171521 L26.1339904,4.77676375 L27.590249,4.76666667 L25.6591235,7.17987055 Z M32.7532915,8.91636964 L32.8391486,8.99874587 L32.7425594,9.96666667 L29.0292398,9.96666667 L29.0829005,8.42211221 L29.0292398,4.76666667 L32.7962201,4.76666667 L32.871345,4.86963696 L32.7854879,5.82726073 L31.39031,5.77577558 L30.3814891,5.77577558 L30.3600248,6.82607261 L31.3259172,6.83636964 L32.2596132,6.80547855 L32.3347381,6.89815182 L32.248881,7.87636964 L31.229328,7.84547855 L30.3385606,7.84547855 L30.3278284,8.29854785 L30.3492927,8.95755776 L31.2937208,8.95755776 L32.7532915,8.91636964 Z M38.7763381,8.32887139 L38.8274918,9.96666667 L37.4258813,9.96666667 L35.3592733,6.76272966 L35.2876581,6.76272966 L35.2774274,8.15485564 L35.3183503,9.96666667 L34.1520468,9.96666667 L34.2032004,8.45170604 L34.1520468,4.79737533 L35.5434265,4.79737533 L37.6100345,8.00131234 L37.7021111,8.00131234 L37.6611882,4.84855643 L38.8479532,4.76666667 L38.7763381,8.32887139 Z M49.062707,7.06279391 L48.9495526,7.89829414 L47.6225604,7.89829414 C47.4648293,8.56398058 47.1613729,9.075125 46.7121821,9.43174274 C46.2629912,9.78836047 45.6817951,9.96666667 44.9685761,9.96666667 C44.1250574,9.96666667 43.4632824,9.72552877 42.9832312,9.24324574 C42.5031799,8.7609627 42.2631579,8.09528625 42.2631579,7.2461964 C42.2631579,6.72315706 42.3574523,6.26295727 42.5460438,5.86558322 C42.7346354,5.46820917 43.0003741,5.16084326 43.3432678,4.94347626 C43.6861616,4.72610926 44.0804835,4.61742739 44.5262453,4.61742739 C44.9445757,4.61742739 45.2651766,4.70573141 45.4880575,4.88234209 C45.7109384,5.05895278 45.8223772,5.29329806 45.8223772,5.58538497 C45.8223772,5.632934 45.8189483,5.67029339 45.8120905,5.69746427 C46.4087256,5.24914483 46.9333452,4.76007642 47.3859649,4.23024435 C47.8385847,3.70041229 48.1917599,3.15700294 48.4455013,2.6 L48.5586557,2.6 C48.8261128,2.84453788 49.0044149,3.12982778 49.0935673,3.45587828 C48.8946889,3.92457588 48.5072248,4.4544 47.9311632,5.04536653 C47.3551017,5.63633306 46.6761823,6.20012026 45.8943846,6.73674504 C45.1125868,7.27336983 44.3308008,7.70809731 43.549003,8.04094053 C43.6655869,8.35340559 43.8524612,8.59114718 44.1096315,8.75417243 C44.3668018,8.91719768 44.6839738,8.99870908 45.0611569,8.99870908 C45.602929,8.99870908 46.0229676,8.82719551 46.3212851,8.48416321 C46.6196027,8.14113091 46.775617,7.66394958 46.7893328,7.05260489 L46.8819136,6.95071462 L48.9804129,6.95071462 L49.062707,7.06279391 Z M44.288843,5.63333333 C43.9316956,5.63333333 43.6489582,5.78874669 43.4406223,6.09957806 C43.2322863,6.41040943 43.1243996,6.83276808 43.1169591,7.36666667 C43.585715,7.16919732 44.0209818,6.95710381 44.4227726,6.73037975 L44.4116118,6.73037975 C44.6869129,6.55485144 44.8245614,6.33544435 44.8245614,6.0721519 C44.8245614,5.77960473 44.6459904,5.63333333 44.288843,5.63333333 Z M55.1671589,7.32697201 C55.7074983,8.14733235 56.2443659,8.88829186 56.7777778,9.54987277 L56.7569956,9.69872774 C56.3067128,9.85089135 55.8460458,9.94020343 55.3749807,9.96666667 L55.2295055,9.85750636 C54.7307307,9.03714603 54.3254823,8.32264935 54.013748,7.71399491 L53.0058124,7.71399491 L53.0058124,7.84300254 L53.0681589,9.86743003 L51.6549708,9.86743003 L51.7277084,7.96208651 L51.6549708,3.47659033 L54.2215698,3.46666667 C54.92124,3.46666667 55.4615712,3.63040549 55.8425797,3.95788804 C56.2235883,4.28537059 56.4140897,4.75343207 56.4140897,5.36208651 C56.4140897,5.77226668 56.3049843,6.14770822 56.0867703,6.48842239 C55.8685564,6.82913656 55.5620223,7.10865031 55.1671589,7.32697201 Z M52.9356725,6.46182085 L53.8544368,6.5 C54.3803315,6.31546653 54.6432749,5.92413417 54.6432749,5.32599119 C54.6432749,5.00146681 54.5582049,4.75807717 54.3880625,4.59581498 C54.2179202,4.43355279 53.9565235,4.34605978 53.6038647,4.33333333 L52.9727943,4.37151248 L52.9356725,6.46182085 Z M59.6960435,8.29854785 L59.7460709,9.96666667 L58.4853801,9.96666667 L58.5354075,8.42211221 L58.4853801,4.76666667 L59.7660819,4.76666667 L59.6960435,8.29854785 Z M64.6464515,7.26470588 C65.0188934,7.35307234 65.2947071,7.49411668 65.4739008,7.68784314 C65.6530945,7.8815696 65.7426901,8.13816834 65.7426901,8.45764706 C65.7426901,8.97425095 65.5213364,9.35490074 65.0786225,9.59960784 C64.6359086,9.84431495 63.9788747,9.96666667 63.1075013,9.96666667 C62.721005,9.96666667 62.1764047,9.95307203 61.4736842,9.92588235 L61.526388,8.39647059 L61.4736842,4.77686275 L63.6134575,4.76666667 C64.2037428,4.76666667 64.6657746,4.87882241 64.9995668,5.10313725 C65.3333591,5.3274521 65.5002527,5.65032469 65.5002527,6.07176471 C65.5002527,6.34366149 65.4264681,6.58156761 65.2788968,6.7854902 C65.1313255,6.98941278 64.9205125,7.14914975 64.6464515,7.26470588 Z M64.0350877,6.22424242 C64.0350877,6.00220275 63.9644856,5.8482098 63.8232794,5.76225895 C63.6820731,5.67630811 63.4341448,5.63333333 63.0794872,5.63333333 L62.7740891,5.63333333 L62.754386,6.91184573 L63.4735493,6.93333333 C63.6640135,6.88319534 63.8052177,6.80261763 63.897166,6.6915978 C63.9891143,6.58057796 64.0350877,6.42479439 64.0350877,6.22424242 Z M63.38522,9.1 C63.733268,9.1 63.9997383,9.04325454 64.1846389,8.9297619 C64.3695394,8.81626927 64.4619883,8.64603288 64.4619883,8.41904762 C64.4619883,8.25396743 64.4003557,8.1232809 64.2770887,8.02698413 C64.1538217,7.93068735 63.9652984,7.85502673 63.7115134,7.8 L62.7652624,7.82063492 L62.754386,8.2952381 L62.7761389,9.06904762 C63.0081709,9.08968264 63.2111959,9.1 63.38522,9.1 Z M68.8553114,4.76666667 C69.3619651,4.76666667 69.8475011,4.84983922 70.3119337,5.01618682 L70.1113842,6.13403711 L69.92139,6.18394114 C69.6962106,6.02424744 69.4780712,5.90447897 69.2669655,5.82463212 C69.0558598,5.74478527 68.8623491,5.70486244 68.6864276,5.70486244 C68.4893956,5.70486244 68.334587,5.74977562 68.2219973,5.83960333 C68.1094076,5.92943103 68.0531136,6.03755535 68.0531136,6.16397953 C68.0531136,6.30371151 68.1234811,6.41848963 68.2642182,6.50831734 C68.4049554,6.59814504 68.6266131,6.70294246 68.929198,6.82271273 C69.2458566,6.94913691 69.5044573,7.06557848 69.7050077,7.17204095 C69.9055582,7.27850341 70.0779586,7.42655056 70.2222142,7.61618682 C70.3664698,7.80582309 70.4385965,8.04369659 70.4385965,8.32981446 C70.4385965,8.61593233 70.359433,8.88374795 70.2011037,9.13326935 C70.0427744,9.38279075 69.8035248,9.58406833 69.4833478,9.73710813 C69.1631708,9.89014792 68.7673534,9.96666667 68.2958839,9.96666667 C68.0425571,9.96666667 67.7663645,9.9417149 67.4672981,9.89181062 C67.1682316,9.84190634 66.8779655,9.76372414 66.5964912,9.65726168 L66.7759302,8.47952655 L66.9131483,8.3896993 C67.1453646,8.58931642 67.4057244,8.74900772 67.6942356,8.86877799 C67.9827468,8.98854826 68.2395882,9.0484325 68.4647677,9.0484325 C68.6617997,9.0484325 68.8218858,9.00185587 68.9450308,8.90870122 C69.0681759,8.81554656 69.1297474,8.69910499 69.1297474,8.559373 C69.1297474,8.41298711 69.0576207,8.29488209 68.9133651,8.20505438 C68.7691096,8.11522668 68.5456927,8.01375616 68.2431078,7.9006398 C67.9264492,7.77421562 67.6678485,7.65611059 67.4672981,7.54632118 C67.2667476,7.43653176 67.0943472,7.28515771 66.9500916,7.0921945 C66.805836,6.89923128 66.7337093,6.65969433 66.7337093,6.37357646 C66.7337093,6.07415077 66.8199095,5.8013448 66.9923125,5.55515035 C67.1647155,5.3089559 67.4110019,5.11599558 67.7311789,4.9762636 C68.0513559,4.83653161 68.426063,4.76666667 68.8553114,4.76666667 Z" id="Chicken-&amp;-Ribs"></path>
                </g>
            </g>
        </g>
    </g>
</svg>