<?xml version="1.0" encoding="UTF-8"?>
<svg width="184px" height="83px" viewBox="0 0 184 83" version="1.1" xmlns="http://www.w3.org/2000/svg" xmlns:xlink="http://www.w3.org/1999/xlink">
    <!-- Generator: Sketch 49.2 (51160) - http://www.bohemiancoding.com/sketch -->
    <title>floral</title>
    <desc>Created with Sketch.</desc>
    <defs></defs>
    <g id="floral" stroke="none" stroke-width="1" fill="none" fill-rule="evenodd">
        <g id="Group" transform="translate(16.000000, 19.000000)" fill="#FFCF4F">
            <g id="floral-1" transform="translate(0.000000, 4.000000)">
                <path d="M22.1431264,17.5468611 C25.7976265,16.2890611 27.5399679,12.7830907 26.0390261,9.72146446 C24.5365613,6.65513622 20.3543327,5.19397233 16.7028787,6.45059678 C13.0438095,7.71251105 11.3029911,11.214955 12.8077405,14.2824587 C14.3094438,17.3440849 18.4878648,18.8087754 22.1431264,17.5468611 Z M22.6487709,10.8899254 C21.5887451,10.4790832 20.9711581,10.2451559 19.1907411,10.8587742 C17.4156547,11.4706293 16.7379083,11.9243777 16.1995187,13.1122346 C15.4707509,11.6222706 16.3205992,9.91189773 18.0994932,9.29769167 C19.8783872,8.68466112 21.9200031,9.39996139 22.6487709,10.8899254 Z" id="Fill-255"></path>
                <path d="M61.8719148,9.72146446 C60.370968,12.7830907 62.1148383,16.2890611 65.7655432,17.5468611 C69.4238632,18.8087754 73.6022983,17.3440849 75.1040067,14.2824587 C76.6079996,11.214955 74.8656524,7.71251105 71.2080938,6.45059678 C67.5543429,5.19397233 63.3743848,6.65513622 61.8719148,9.72146446 Z M65.262943,10.8899254 C65.9917132,9.39996139 68.031813,8.68466112 69.8114745,9.29769167 C71.5911361,9.91189773 72.4402258,11.6222706 71.712217,13.1122346 C71.1738256,11.9243777 70.4960769,11.4706293 68.7209845,10.8587742 C66.9405614,10.2451559 66.323734,10.4790832 65.262943,10.8899254 Z" id="Fill-256"></path>
                <path d="M83.4493999,3.48563691 C76.9720013,-1.08193003 67.7803779,-1.08193003 61.2035717,3.02435079 C54.6967485,7.37796203 56.6109411,16.8087005 62.351133,18.0429686 C59.5184143,15.8009035 59.6472465,9.75292997 65.6777086,7.77726655 C71.2787298,5.2735676 79.6146527,9.05980883 80.2087125,15.2675042 C81.4119419,21.5616162 73.9158144,27.0279163 66.0657958,27.3163691 C60.3701385,27.8730116 56.0773211,24.8555805 52.7245019,21.7535208 C49.580041,18.8445575 47.3723973,12.9884885 46.1182711,7.6676068 C46.0808939,7.4536511 45.9377469,7.44351949 45.8828739,7.6676068 C44.6271573,12.9884885 42.421104,18.8445575 39.2758479,21.7535208 C35.9238239,24.8555805 31.6310066,27.8730116 25.9361445,27.3163691 C18.0837402,27.0279163 10.5884079,21.5616162 11.7932279,15.2675042 C12.3849018,9.05980883 20.72162,5.2735676 26.3226412,7.77726655 C32.3538986,9.75292997 32.4827308,15.8009035 29.6508074,18.0429686 C35.390204,16.8087005 37.3043965,7.37796203 30.7975733,3.02435079 C24.2215624,-1.08193003 15.0283485,-1.08193003 8.55174516,3.48563691 C2.26679968,7.64674761 -1.07965743,14.6578198 0.312844091,20.406017 C1.44131905,26.1208395 6.48804359,31.4893994 11.7168828,33.846488 C21.6083357,38.2906877 29.9204007,36.2792657 34.9909831,34.516962 C38.113972,33.3148766 41.0182641,31.8285102 43.1201382,30.4375002 C44.2287316,29.7038526 45.4558189,35.9860451 45.9099128,37.8949591 C45.9099128,38.0350136 46.0912322,38.0350136 46.0912322,37.8949591 C46.5445309,35.9860451 47.7716182,29.7038526 48.8810069,30.4375002 C50.9820857,31.8285102 53.8855826,33.3148766 57.010162,34.516962 C62.0815396,36.2792657 70.3928094,38.2906877 80.2818764,33.846488 C85.5131015,31.4893994 90.5582355,26.1208395 91.6875057,20.406017 C93.079212,14.6578198 89.7319596,7.64674761 83.4493999,3.48563691 Z M8.11355651,6.98819314 C16.1234225,-3.14460607 29.9267628,1.54632809 32.4978407,9.88046902 C21.2687594,-2.25302464 8.11355651,6.98819314 8.11355651,6.98819314 Z M83.8875885,6.98819314 C83.8875885,6.98819314 70.7299999,-2.25302464 59.5017138,9.88046902 C62.0727917,1.54632809 75.8769273,-3.14460607 83.8875885,6.98819314 Z" id="Fill-257"></path>
            </g>
            <g id="floral-2" transform="translate(118.809524, 0.000000)">
                <path d="M32.5257584,18.9553416 C32.3591158,18.3435806 31.8206132,18.7069375 31.5999661,18.101783 C31.4194366,17.5957259 31.5490475,16.0669841 31.3438302,15.5767825 C31.1370699,15.0812957 30.6325131,15.54375 30.407237,15.0667615 C30.1773319,14.5805238 30.2051057,13.1284172 29.9597707,12.6659629 C29.7098068,12.1969021 29.1713043,12.6897463 28.9043675,12.2431476 C28.6358878,11.788621 28.6235439,10.3669044 28.3380912,9.9361612 C28.0526386,9.49484766 27.6067153,10.0748975 27.3089188,9.66000991 C27.0049503,9.23455194 26.8305928,7.7890519 26.5173664,7.39398379 C26.1964251,6.9830601 25.8214792,7.64899431 25.4943659,7.26978177 C25.1595377,6.87207106 24.8524833,5.40939414 24.5161121,5.04603718 C24.165854,4.66814595 23.923605,5.5745564 23.5733469,5.23101891 C23.206116,4.87030454 22.7061881,3.24114407 22.3435861,2.92138995 C21.9593823,2.57785246 21.757251,3.55429171 21.3792192,3.25699965 C20.9749565,2.93724552 20.3731915,1.33186842 19.9936167,1.06893011 C19.5615803,0.774280647 19.4998608,1.78639494 19.1094851,1.57498725 C18.635788,1.31601284 18.2052946,0.039638941 16.9801628,0 L16.9739908,0 C15.750402,0.039638941 15.3152797,1.31601284 14.8431256,1.57498725 C14.4558358,1.78639494 14.3925733,0.774280647 13.9620799,1.06893011 C13.5794191,1.33186842 12.9761111,2.93724552 12.5718485,3.25699965 C12.1999886,3.55429171 11.9947713,2.57785246 11.6074815,2.92138995 C11.2495085,3.24114407 10.7495807,4.87030454 10.3808067,5.23101891 C10.0320916,5.5745564 9.78829967,4.66814595 9.43958457,5.04603718 C9.09858441,5.40939414 8.79461594,6.87207106 8.45978773,7.26978177 C8.13267445,7.64899431 7.75618559,6.9830601 7.43678724,7.39398379 C7.12356085,7.7890519 6.9492033,9.23455194 6.64523483,9.66000991 C6.34743831,10.0748975 5.90151503,9.49484766 5.61760539,9.9361612 C5.33215277,10.3669044 5.31826588,11.788621 5.04824313,12.2431476 C4.78439233,12.6897463 4.24434682,12.1969021 3.9943829,12.6659629 C3.74904795,13.1284172 3.77682171,14.5805238 3.54845962,15.0667615 C3.31855453,15.54375 2.8170837,15.0812957 2.61032343,15.5767825 C2.40510613,16.0669841 2.53626004,17.5957259 2.35110158,18.101783 C2.13662637,18.7069375 1.59658087,18.3435806 1.42839527,18.9553416 C1.25712369,19.5803155 1.67835918,21.0614906 1.55954917,21.6904285 C1.43765319,22.331258 0.76491079,22.1912004 0.695476368,22.8346726 C0.62912792,23.4847512 1.23089291,24.8113344 1.220092,25.4614131 C1.20929109,26.1114917 0.579752331,26.1630223 0.624498958,26.8104584 C0.670788573,27.4592157 1.44999709,28.6351709 1.50554462,29.2931774 C1.5564632,29.9379708 1.0873951,30.0965266 1.24940876,30.7201792 C1.40370747,31.3425106 2.28012417,32.4444732 2.49151342,33.0483064 C2.70290266,33.6442118 2.27240924,33.8173018 2.53626004,34.3960304 C2.79702487,34.9602246 3.94037835,35.9974436 4.25051877,36.5431397 C4.55448724,37.0743015 4.0669033,37.1773627 4.42179035,37.6834199 C4.76896245,38.176264 6.01106711,38.9637577 6.40144286,39.4301759 C6.78410368,39.8847024 6.35823922,40.0683628 6.78410368,40.4938208 C7.04023955,40.7514739 8.30548901,41.3738053 9.99814592,42.5920421 C16.3166783,47.135986 17.6374753,47.135986 23.9544647,42.5920421 C25.6486646,41.3738053 26.9123711,40.7514739 27.17005,40.4938208 C27.5943714,40.0683628 27.17005,39.8847024 27.5496248,39.4301759 C27.9446295,38.9637577 29.1851912,38.176264 29.5339063,37.6834199 C29.8872503,37.1773627 29.3981234,37.0743015 29.7020919,36.5431397 C30.0153183,35.9974436 31.1571288,34.9602246 31.4163506,34.3960304 C31.6817444,33.8173018 31.252794,33.6442118 31.4626402,33.0483064 C31.6755725,32.4444732 32.5504462,31.3425106 32.7062879,30.7201792 C32.8652155,30.0965266 32.3930615,29.9379708 32.450152,29.2931774 C32.5056995,28.6351709 33.2833651,27.4592157 33.3311977,26.8104584 C33.3744013,26.1630223 32.7479485,26.1114917 32.7340616,25.4614131 C32.7232607,24.8113344 33.3265687,23.4847512 33.2571343,22.8346726 C33.1907858,22.1912004 32.5165004,22.331258 32.3930615,21.6904285 C32.2773374,21.0614906 32.6985729,19.5803155 32.5257584,18.9553416 Z M7.61012319,31.5676271 C7.54059905,31.2519728 7.4710749,31.0023858 7.42762231,30.8526335 C7.24946668,30.2565608 7.02351321,29.7383006 6.79321447,29.2670215 L6.78017869,28.2525234 L6.75555556,28 L10.8444444,36 L7.61012319,31.5676271 Z M4.74592519,23.6478873 L4.71111111,23.382756 L5.08044313,22.0970689 C5.19548097,21.4748763 5.21213118,20.8740008 5.18942635,20.3330796 L5.35290117,20 L10.8444444,34 L4.74592519,23.6478873 Z M6.75555556,17.6730185 L7.04554412,17.1096382 C7.25439599,16.6318696 7.39713648,16.1513394 7.49930862,15.6929025 C7.79680984,15.3780724 8.06125538,15.0080088 8.29114269,14.5923778 L8.57211607,14 L12.8888889,34 L6.75555556,17.6730185 Z M10.8444444,13.3747431 L11.1526521,12.6362183 C11.430724,12.4032884 11.6896185,12.1251427 11.9238563,11.8004111 C12.1731621,11.4633478 12.3717849,11.1057319 12.5402717,10.7494862 C12.8375209,10.5480703 13.121072,10.3000685 13.3813363,10 L14.9333333,34 L10.8444444,13.3747431 Z M16.9679879,32 L14.9333333,7.46763928 L15.0328634,7.4052678 C15.4260885,7.11886811 15.7524164,6.79810046 16.0314268,6.4684226 L16.8113505,6.15911094 L17.1066773,6 L17.4020041,6.15911094 L18.1819278,6.4684226 L19.0222222,7.27161461 L16.9679879,32 Z M20.5727767,8 L20.7742318,8.26721703 C21.0185774,8.55007604 21.2876174,8.78600912 21.572254,8.97762329 C21.729519,9.3165327 21.9218761,9.6593526 22.1545243,9.97740604 C22.3780745,10.286335 22.6237197,10.550945 22.8888606,10.7725396 L23.1111111,11.3252227 L19.0222222,32 L20.5727767,8 Z M25.3899441,14 L25.7504655,14.7708604 C25.975419,15.1795257 26.2405959,15.5458211 26.5340782,15.8574455 C26.6324022,16.3112144 26.7724395,16.7868516 26.9839851,17.2624889 L27.2,17.6971229 L21.0666667,34 L25.3899441,14 Z M27.1524222,28.4967181 L27.1384288,29.48022 C26.9145334,29.9329431 26.6990341,30.4339188 26.5297133,31.0101118 L26.4065708,31.4897995 L23.1111111,36 L27.2,28 L27.1524222,28.4967181 Z M23.1111111,34 L28.5540547,20 L28.7767611,20.4564214 C28.7544904,20.991991 28.7723069,21.5869217 28.8836601,22.2055969 L29.2444444,23.4759258 L23.1111111,34 Z" id="Fill-403"></path>
            </g>
        </g>
    </g>
</svg>