<?xml version="1.0" encoding="UTF-8"?>
<svg width="555px" height="137px" viewBox="0 0 555 137" version="1.1" xmlns="http://www.w3.org/2000/svg" xmlns:xlink="http://www.w3.org/1999/xlink">
    <!-- Generator: Sketch 49.2 (51160) - http://www.bohemiancoding.com/sketch -->
    <title>motto</title>
    <desc>Created with Sketch.</desc>
    <defs>
        <path d="M403.42,32.62 L418.54,32.62 L418.54,46.2 L403.49,46.2 L403.49,63 L387.11,63 L387.11,13.44 L420.57,13.44 L420.57,27.37 L403.42,27.37 L403.42,32.62 Z M450.95,64.4 C447.076647,64.4 443.705014,63.8633387 440.835,62.79 C437.964986,61.7166613 435.573343,60.246676 433.66,58.38 C431.746657,56.513324 430.323338,54.308346 429.39,51.765 C428.456662,49.221654 427.99,46.4800147 427.99,43.54 L427.99,13.44 L444.65,13.44 L444.65,41.72 C444.65,44.1000119 445.221661,45.9549933 446.365,47.285 C447.508339,48.6150066 449.129989,49.28 451.23,49.28 C453.33001,49.28 454.951661,48.6150066 456.095,47.285 C457.238339,45.9549933 457.81,44.1000119 457.81,41.72 L457.81,13.44 L474.4,13.44 L474.4,43.54 C474.4,46.4800147 473.898338,49.221654 472.895,51.765 C471.891662,54.308346 470.41001,56.513324 468.45,58.38 C466.48999,60.246676 464.051681,61.7166613 461.135,62.79 C458.218319,63.8633387 454.823353,64.4 450.95,64.4 Z M483.85,13.44 L500.44,13.44 L514.58,38.57 L514.86,38.57 L514.16,13.44 L529.98,13.44 L529.98,63 L512.97,63 L499.25,39.34 L498.97,39.34 L499.67,63 L483.85,63 L483.85,13.44 Z" id="path-1"></path>
        <filter x="-14.3%" y="-36.3%" width="128.7%" height="180.5%" filterUnits="objectBoundingBox" id="filter-2">
            <feOffset dx="0" dy="2" in="SourceAlpha" result="shadowOffsetOuter1"></feOffset>
            <feGaussianBlur stdDeviation="6.5" in="shadowOffsetOuter1" result="shadowBlurOuter1"></feGaussianBlur>
            <feColorMatrix values="0 0 0 0 0   0 0 0 0 0   0 0 0 0 0  0 0 0 0.827190897 0" type="matrix" in="shadowBlurOuter1"></feColorMatrix>
        </filter>
        <path d="M32.275,51.1 L32.95,52 L32.2,61 L0.25,61 L0.925,46.675 L0.25,12.625 L32.65,12.625 L33.325,13.525 L32.5,22.525 L20.725,22.075 L12.475,22.15 L12.325,31.825 L20.2,31.825 L28.075,31.6 L28.75,32.5 L28,41.5 L19.375,41.275 L12.1,41.275 L12.025,45.475 L12.175,51.475 L20.125,51.55 L32.275,51.1 Z M70.43,51.925 L69.605,61 L42.38,61 L43.055,46.675 L42.38,12.625 L54.755,12.625 L54.08,45.475 L54.305,51.025 L69.68,51.025 L70.43,51.925 Z M111.06,51.1 L111.735,52 L110.985,61 L79.0349999,61 L79.7099999,46.675 L79.0349999,12.625 L111.435,12.625 L112.11,13.525 L111.285,22.525 L99.5099999,22.075 L91.2599999,22.15 L91.1099999,31.825 L98.9849999,31.825 L106.86,31.6 L107.535,32.5 L106.785,41.5 L98.1599999,41.275 L90.8849999,41.275 L90.8099999,45.475 L90.9599999,51.475 L98.9099999,51.55 L111.06,51.1 Z M143.215,11.95 C148.615027,11.95 153.28998,12.8249912 157.24,14.575 L154.69,25.45 L153.64,25.45 C151.189988,24.0999932 149.00251,23.1375029 147.0775,22.5625 C145.15249,21.9874971 143.115011,21.7 140.965,21.7 C138.264986,21.7 136.115008,22.1874951 134.515,23.1625 C132.914992,24.1375049 131.727504,25.7499887 130.9525,28 C130.177496,30.2500112 129.79,33.3249805 129.79,37.225 C129.79,41.0750192 130.164996,44.0874891 130.915,46.2625 C131.665004,48.4375109 132.852492,49.9999952 134.4775,50.95 C136.102508,51.9000047 138.339986,52.375 141.19,52.375 C142.590007,52.375 144.214991,52.1250025 146.065,51.625 L146.14,48.25 L145.915,40.375 L157.09,39.55 L156.94,46.225 L157.015,58.6 C151.06497,60.7000105 145.440026,61.75 140.14,61.75 C132.489962,61.75 126.740019,59.6875206 122.89,55.5625 C119.039981,51.4374794 117.115,45.5250385 117.115,37.825 C117.115,29.424958 119.364977,23.0125221 123.865,18.5875 C128.365022,14.1624779 134.814958,11.95 143.215,11.95 Z M207.245,61 L194.87,61 L193.595,54.025 L192.92,51.25 L184.22,51.1 L176.72,51.325 L176.12,53.275 L174.77,61 L162.845,61 L178.445,12.625 L193.07,12.625 L207.245,61 Z M190.595,42.1 L185.87,23.725 L185.12,23.725 L179.495,42.1 L185.045,42.25 L190.595,42.1 Z M258.15,45.7 L258.6,61 L245.4,61 L228.225,31.075 L227.475,31.075 L227.4,43.975 L227.85,61 L216.825,61 L217.425,46.75 L216.825,12.625 L229.95,12.625 L247.2,42.55 L247.95,42.55 L247.65,13.075 L258.825,12.4 L258.15,45.7 Z M304.78,13.525 L304.105,22.45 L294.655,22 L292.555,22 L292.18,45.475 L292.63,61 L280.48,61 L281.155,46.675 L280.78,22 L278.53,22 L269.005,22.45 L268.255,21.55 L269.005,12.625 L304.105,12.625 L304.78,13.525 Z" id="path-3"></path>
        <filter x="-6.7%" y="-37.1%" width="113.5%" height="182.3%" filterUnits="objectBoundingBox" id="filter-4">
            <feOffset dx="0" dy="2" in="SourceAlpha" result="shadowOffsetOuter1"></feOffset>
            <feGaussianBlur stdDeviation="6.5" in="shadowOffsetOuter1" result="shadowBlurOuter1"></feGaussianBlur>
            <feColorMatrix values="0 0 0 0 0   0 0 0 0 0   0 0 0 0 0  0 0 0 0.827190897 0" type="matrix" in="shadowBlurOuter1"></feColorMatrix>
        </filter>
        <path d="M368.4375,43.125 L367.5375,52.125 L356.5875,52.125 C354.987492,56.1750203 352.625016,59.1624904 349.5,61.0875 C346.374984,63.0125096 342.437524,63.975 337.6875,63.975 C331.137467,63.975 326.087518,62.2375174 322.5375,58.7625 C318.987482,55.2874826 317.2125,50.350032 317.2125,43.95 C317.2125,37.749969 318.824984,32.8375181 322.05,29.2125 C325.275016,25.5874819 329.762471,23.775 335.5125,23.775 C338.912517,23.775 341.487491,24.3874939 343.2375,25.6125 C344.987509,26.8375061 345.937499,28.5249893 346.0875,30.675 C350.08752,27.474984 353.587485,24.0875179 356.5875,20.5125 C359.587515,16.9374821 361.912492,13.3000185 363.5625,9.6 L364.6875,9.6 C367.487514,12.200013 369.362495,15.199983 370.3125,18.6 C369.362495,21.200013 366.87502,24.5124799 362.85,28.5375 C358.82498,32.5625201 353.950029,36.6124796 348.225,40.6875 C342.499971,44.7625204 336.837528,48.1749863 331.2375,50.925 C332.737507,52.92501 335.187483,53.925 338.5875,53.925 C341.787516,53.925 344.249991,53.025009 345.975,51.225 C347.700009,49.424991 348.812498,46.625019 349.3125,42.825 L350.2875,42.075 L367.6125,42.075 L368.4375,43.125 Z M335.0625,32.775 C333.312491,32.775 331.950005,33.4874929 330.975,34.9125 C329.999995,36.3375071 329.437501,38.3749868 329.2875,41.025 C331.137509,40.1749958 333.262488,39.0750068 335.6625,37.725 C336.812506,36.9749963 337.3875,35.9750063 337.3875,34.725 C337.3875,33.4249935 336.612508,32.775 335.0625,32.775 Z" id="path-5"></path>
        <filter x="-33.0%" y="-23.0%" width="165.9%" height="164.4%" filterUnits="objectBoundingBox" id="filter-6">
            <feOffset dx="0" dy="5" in="SourceAlpha" result="shadowOffsetOuter1"></feOffset>
            <feGaussianBlur stdDeviation="5" in="shadowOffsetOuter1" result="shadowBlurOuter1"></feGaussianBlur>
            <feColorMatrix values="0 0 0 0 0   0 0 0 0 0   0 0 0 0 0  0 0 0 0.5 0" type="matrix" in="shadowBlurOuter1"></feColorMatrix>
        </filter>
    </defs>
    <g id="website" stroke="none" stroke-width="1" fill="none" fill-rule="evenodd">
        <g id="hours-location" transform="translate(-381.000000, -275.000000)">
            <g id="motto" transform="translate(393.000000, 274.000000)">
                <g id="FUN">
                    <use fill="black" fill-opacity="1" filter="url(#filter-2)" xlink:href="#path-1"></use>
                    <use fill="#FFFFFF" fill-rule="evenodd" xlink:href="#path-1"></use>
                </g>
                <g id="ELEGANT">
                    <use fill="black" fill-opacity="1" filter="url(#filter-4)" xlink:href="#path-3"></use>
                    <use fill="#FFFFFF" fill-rule="evenodd" xlink:href="#path-3"></use>
                </g>
                <g id="&amp;">
                    <use fill="black" fill-opacity="1" filter="url(#filter-6)" xlink:href="#path-5"></use>
                    <use fill="#FFCF4F" fill-rule="evenodd" xlink:href="#path-5"></use>
                </g>
                <path d="M0.475001154,82.52 L27.8950012,82.52 L27.8950012,89.12 L8.03500115,89.12 L8.03500115,100.76 L26.7550012,100.76 L26.7550012,107.12 L8.03500115,107.12 L8.03500115,125 L0.475001154,125 L0.475001154,82.52 Z M39.7850009,103.64 C39.7850009,100.239983 40.3549952,97.1700137 41.4950009,94.43 C42.6350066,91.6899863 44.2149908,89.3600096 46.2350009,87.44 C48.255011,85.5199904 50.654987,84.0400052 53.4350009,83 C56.2150148,81.9599948 59.2449845,81.44 62.5250009,81.44 C65.8450175,81.44 68.9049869,81.9599948 71.7050009,83 C74.5050149,84.0400052 76.9249907,85.5199904 78.9650009,87.44 C81.0050111,89.3600096 82.5949952,91.6899863 83.7350009,94.43 C84.8750066,97.1700137 85.4450009,100.239983 85.4450009,103.64 C85.4450009,106.960017 84.8750066,109.989986 83.7350009,112.73 C82.5949952,115.470014 81.0050111,117.82999 78.9650009,119.81 C76.9249907,121.79001 74.5050149,123.329994 71.7050009,124.43 C68.9049869,125.530006 65.8450175,126.08 62.5250009,126.08 C59.2449845,126.08 56.2150148,125.530006 53.4350009,124.43 C50.654987,123.329994 48.255011,121.79001 46.2350009,119.81 C44.2149908,117.82999 42.6350066,115.470014 41.4950009,112.73 C40.3549952,109.989986 39.7850009,106.960017 39.7850009,103.64 Z M48.0050009,103.64 C48.0050009,105.920011 48.3549974,108.009991 49.0550009,109.91 C49.7550044,111.810009 50.7549944,113.459993 52.0550009,114.86 C53.3550074,116.260007 54.894992,117.349996 56.6750009,118.13 C58.4550098,118.910004 60.4249901,119.3 62.5850009,119.3 C64.7450117,119.3 66.7249919,118.910004 68.5250009,118.13 C70.3250099,117.349996 71.8749944,116.260007 73.1750009,114.86 C74.4750074,113.459993 75.4749974,111.810009 76.1750009,109.91 C76.8750044,108.009991 77.2250009,105.920011 77.2250009,103.64 C77.2250009,101.439989 76.8750044,99.4000094 76.1750009,97.52 C75.4749974,95.6399906 74.4850073,94.000007 73.2050009,92.6 C71.9249945,91.199993 70.3850099,90.100004 68.5850009,89.3 C66.7849919,88.499996 64.7850119,88.1 62.5850009,88.1 C60.3849899,88.1 58.3950098,88.499996 56.6150009,89.3 C54.834992,90.100004 53.3050073,91.199993 52.0250009,92.6 C50.7449945,94.000007 49.7550044,95.6399906 49.0550009,97.52 C48.3549974,99.4000094 48.0050009,101.439989 48.0050009,103.64 Z M99.7350007,82.52 L114.495001,82.52 C116.495011,82.52 118.434991,82.7299979 120.315001,83.15 C122.19501,83.5700021 123.864993,84.2599952 125.325001,85.22 C126.785008,86.1800048 127.954996,87.4399922 128.835001,89 C129.715005,90.5600078 130.155001,92.4599888 130.155001,94.7 C130.155001,97.7800154 129.285009,100.28999 127.545001,102.23 C125.804992,104.17001 123.435016,105.479997 120.435001,106.16 L131.775001,125 L122.655001,125 L112.815001,107 L107.295001,107 L107.295001,125 L99.7350007,125 L99.7350007,82.52 Z M113.475001,100.82 C114.555006,100.82 115.634995,100.740001 116.715001,100.58 C117.795006,100.419999 118.764996,100.120002 119.625001,99.68 C120.485005,99.2399978 121.194998,98.6100041 121.755001,97.79 C122.315004,96.9699959 122.595001,95.9200064 122.595001,94.64 C122.595001,93.4799942 122.335003,92.5300037 121.815001,91.79 C121.294998,91.0499963 120.635005,90.4600022 119.835001,90.02 C119.034997,89.5799978 118.125006,89.2800008 117.105001,89.12 C116.084996,88.9599992 115.095006,88.88 114.135001,88.88 L107.295001,88.88 L107.295001,100.82 L113.475001,100.82 Z M166.415,82.52 L194.555,82.52 L194.555,89.12 L173.975,89.12 L173.975,99.92 L193.475,99.92 L193.475,106.28 L173.975,106.28 L173.975,118.28 L195.635,118.28 L195.635,125 L166.415,125 L166.415,82.52 Z M204.705,82.52 L213.165,82.52 L224.865,115.22 L225.105,115.22 L236.925,82.52 L245.085,82.52 L228.045,125 L221.505,125 L204.705,82.52 Z M256.135,82.52 L284.275,82.52 L284.275,89.12 L263.695,89.12 L263.695,99.92 L283.195,99.92 L283.195,106.28 L263.695,106.28 L263.695,118.28 L285.355,118.28 L285.355,125 L256.135,125 L256.135,82.52 Z M299.705,82.52 L314.465,82.52 C316.46501,82.52 318.40499,82.7299979 320.285,83.15 C322.165009,83.5700021 323.834992,84.2599952 325.295,85.22 C326.755007,86.1800048 327.924995,87.4399922 328.805,89 C329.685004,90.5600078 330.125,92.4599888 330.125,94.7 C330.125,97.7800154 329.255008,100.28999 327.515,102.23 C325.774991,104.17001 323.405015,105.479997 320.405,106.16 L331.745,125 L322.625,125 L312.785,107 L307.265,107 L307.265,125 L299.705,125 L299.705,82.52 Z M313.445,100.82 C314.525005,100.82 315.604994,100.740001 316.685,100.58 C317.765005,100.419999 318.734995,100.120002 319.595,99.68 C320.455004,99.2399978 321.164997,98.6100041 321.725,97.79 C322.285002,96.9699959 322.565,95.9200064 322.565,94.64 C322.565,93.4799942 322.305002,92.5300037 321.785,91.79 C321.264997,91.0499963 320.605004,90.4600022 319.805,90.02 C319.004996,89.5799978 318.095005,89.2800008 317.075,89.12 C316.054995,88.9599992 315.065004,88.88 314.105,88.88 L307.265,88.88 L307.265,100.82 L313.445,100.82 Z M354.254999,106.58 L338.294999,82.52 L347.534999,82.52 L358.214999,100.4 L369.014999,82.52 L377.774999,82.52 L361.814999,106.58 L361.814999,125 L354.254999,125 L354.254999,106.58 Z M384.564999,103.64 C384.564999,100.239983 385.134994,97.1700137 386.274999,94.43 C387.415005,91.6899863 388.994989,89.3600096 391.014999,87.44 C393.035009,85.5199904 395.434985,84.0400052 398.214999,83 C400.995013,81.9599948 404.024983,81.44 407.304999,81.44 C410.625016,81.44 413.684985,81.9599948 416.484999,83 C419.285013,84.0400052 421.704989,85.5199904 423.744999,87.44 C425.785009,89.3600096 427.374994,91.6899863 428.514999,94.43 C429.655005,97.1700137 430.224999,100.239983 430.224999,103.64 C430.224999,106.960017 429.655005,109.989986 428.514999,112.73 C427.374994,115.470014 425.785009,117.82999 423.744999,119.81 C421.704989,121.79001 419.285013,123.329994 416.484999,124.43 C413.684985,125.530006 410.625016,126.08 407.304999,126.08 C404.024983,126.08 400.995013,125.530006 398.214999,124.43 C395.434985,123.329994 393.035009,121.79001 391.014999,119.81 C388.994989,117.82999 387.415005,115.470014 386.274999,112.73 C385.134994,109.989986 384.564999,106.960017 384.564999,103.64 Z M392.784999,103.64 C392.784999,105.920011 393.134996,108.009991 393.834999,109.91 C394.535003,111.810009 395.534993,113.459993 396.834999,114.86 C398.135006,116.260007 399.67499,117.349996 401.454999,118.13 C403.235008,118.910004 405.204988,119.3 407.364999,119.3 C409.52501,119.3 411.50499,118.910004 413.304999,118.13 C415.105008,117.349996 416.654993,116.260007 417.954999,114.86 C419.255006,113.459993 420.254996,111.810009 420.954999,109.91 C421.655003,108.009991 422.004999,105.920011 422.004999,103.64 C422.004999,101.439989 421.655003,99.4000094 420.954999,97.52 C420.254996,95.6399906 419.265006,94.000007 417.984999,92.6 C416.704993,91.199993 415.165008,90.100004 413.364999,89.3 C411.56499,88.499996 409.56501,88.1 407.364999,88.1 C405.164988,88.1 403.175008,88.499996 401.394999,89.3 C399.61499,90.100004 398.085006,91.199993 396.804999,92.6 C395.524993,94.000007 394.535003,95.6399906 393.834999,97.52 C393.134996,99.4000094 392.784999,101.439989 392.784999,103.64 Z M444.514999,82.52 L454.534999,82.52 L474.274999,114.32 L474.394999,114.32 L474.394999,82.52 L481.954999,82.52 L481.954999,125 L472.354999,125 L452.194999,92.18 L452.074999,92.18 L452.074999,125 L444.514999,125 L444.514999,82.52 Z M498.284999,82.52 L526.424999,82.52 L526.424999,89.12 L505.844999,89.12 L505.844999,99.92 L525.344999,99.92 L525.344999,106.28 L505.844999,106.28 L505.844999,118.28 L527.504999,118.28 L527.504999,125 L498.284999,125 L498.284999,82.52 Z" id="FOR-EVERYONE" fill="#FFFFFF"></path>
                <rect id="Rectangle" fill="#FFFFFF" x="165" y="133" width="366" height="5"></rect>
            </g>
        </g>
    </g>
</svg>