<?xml version="1.0" encoding="UTF-8"?>
<svg width="50px" height="50px" viewBox="0 0 50 50" version="1.1" xmlns="http://www.w3.org/2000/svg" xmlns:xlink="http://www.w3.org/1999/xlink">
    <!-- Generator: Sketch 49.2 (51160) - http://www.bohemiancoding.com/sketch -->
    <title>social-instagram</title>
    <desc>Created with Sketch.</desc>
    <defs></defs>
    <g id="social-instagram" stroke="none" stroke-width="1" fill="none" fill-rule="evenodd">
        <path d="M32.3638889,13.2666667 L17.5016667,13.2666667 C15.1294444,13.2666667 13.1994444,15.1966667 13.1994444,17.5688889 L13.1994444,32.4311111 C13.1994444,34.8033333 15.1294444,36.7338889 17.5016667,36.7338889 L32.3638889,36.7338889 C34.7361111,36.7338889 36.6666667,34.8038889 36.6666667,32.4311111 L36.6666667,17.5688889 C36.6666667,15.1966667 34.7366667,13.2666667 32.3638889,13.2666667 Z M24.9327778,32.7255556 C20.6733333,32.7255556 17.2077778,29.26 17.2077778,25 C17.2077778,20.7405556 20.6733333,17.275 24.9327778,17.275 C29.1927778,17.275 32.6583333,20.7405556 32.6583333,25 C32.6583333,29.2594444 29.1922222,32.7255556 24.9327778,32.7255556 Z M32.9066667,18.8722222 C31.8983333,18.8722222 31.0783333,18.0522222 31.0783333,17.0444444 C31.0783333,16.0366667 31.8983333,15.2166667 32.9066667,15.2166667 C33.9144444,15.2166667 34.7344444,16.0366667 34.7344444,17.0444444 C34.7344444,18.0522222 33.9144444,18.8722222 32.9066667,18.8722222 Z" id="Shape" fill="#000000" fill-rule="nonzero"></path>
        <path d="M24.9327778,20.5394444 C22.4738889,20.5394444 20.4716667,22.5405556 20.4716667,24.9994444 C20.4716667,27.4594444 22.4738889,29.4611111 24.9327778,29.4611111 C27.3927778,29.4611111 29.3933333,27.4594444 29.3933333,24.9994444 C29.3933333,22.5411111 27.3922222,20.5394444 24.9327778,20.5394444 Z" id="Shape" fill="#000000" fill-rule="nonzero"></path>
        <path d="M24.9327778,0 C11.1633333,0 0,11.1633333 0,24.9327778 C0,38.7022222 11.1633333,49.8655556 24.9327778,49.8655556 C38.7022222,49.8655556 49.8655556,38.7022222 49.8655556,24.9327778 C49.8655556,11.1633333 38.7022222,0 24.9327778,0 Z M39.9305556,32.4311111 C39.9305556,36.6038889 36.5366667,39.9977778 32.3638889,39.9977778 L17.5016667,39.9977778 C13.3294444,39.9977778 9.935,36.6038889 9.935,32.4311111 L9.935,17.5688889 C9.935,13.3966667 13.3294444,10.0022222 17.5016667,10.0022222 L32.3638889,10.0022222 C36.5366667,10.0022222 39.9305556,13.3966667 39.9305556,17.5688889 L39.9305556,32.4311111 Z" id="Shape" fill="#000000" fill-rule="nonzero"></path>
    </g>
</svg>