<?xml version="1.0" encoding="UTF-8"?>
<svg width="50px" height="50px" viewBox="0 0 50 50" version="1.1" xmlns="http://www.w3.org/2000/svg" xmlns:xlink="http://www.w3.org/1999/xlink">
    <!-- Generator: Sketch 49.2 (51160) - http://www.bohemiancoding.com/sketch -->
    <title>social-twitter</title>
    <desc>Created with Sketch.</desc>
    <defs></defs>
    <g id="social-twitter" stroke="none" stroke-width="1" fill="none" fill-rule="evenodd">
        <path d="M25,0 C11.2150568,0 0,11.2150568 0,25 C0,38.7839362 11.2150568,50 25,50 C38.7839362,50 50,38.7839362 50,25 C50,11.2150568 38.7859502,0 25,0 Z M36.1526223,19.2781761 C36.1636993,19.5259003 36.1697414,19.7756384 36.1697414,20.0253766 C36.1697414,27.6292999 30.3834689,36.3943044 19.7967856,36.3943044 C16.5471683,36.3943044 13.5221139,35.4446951 10.9763957,33.8113268 C11.4265286,33.8646983 11.8847176,33.8918875 12.3489487,33.8918875 C15.0457182,33.8918875 17.5259808,32.9714815 19.49569,31.4287441 C16.978168,31.3824217 14.8523725,29.7188431 14.1202771,27.4319262 C14.4707162,27.4983888 14.8322323,27.5356481 15.2018046,27.5356481 C15.7264561,27.5356481 16.2360026,27.4671715 16.7183598,27.3352534 C14.0860388,26.8075808 12.1032385,24.4823975 12.1032385,21.6929832 C12.1032385,21.668815 12.1032385,21.6436397 12.1042455,21.6204785 C12.8796423,22.0504713 13.766817,22.3102795 14.7093773,22.3394828 C13.1666398,21.3093128 12.150568,19.5470475 12.150568,17.551156 C12.150568,16.4958108 12.4335374,15.5069282 12.9289857,14.6570128 C15.7657295,18.1392492 20.0072505,20.4291871 24.7885282,20.6708692 C24.6898413,20.2489326 24.6404979,19.8108838 24.6404979,19.3587368 C24.6404979,16.1816241 27.2164263,13.6046886 30.393539,13.6046886 C32.0490615,13.6046886 33.5424555,14.3035527 34.5937727,15.4213325 C35.9059051,15.1635382 37.1344558,14.6862161 38.2492145,14.0246113 C37.8162008,15.368968 36.9068718,16.4958108 35.7155804,17.2087731 C36.8806896,17.0698058 37.9924273,16.7616612 39.0205833,16.3034722 C38.2532426,17.4554902 37.2774511,18.4695481 36.1526223,19.2781761 Z" id="twitter-icon" fill="#191919" fill-rule="nonzero"></path>
    </g>
</svg>