<?xml version="1.0" encoding="UTF-8"?>
<svg width="268px" height="113px" viewBox="0 0 268 113" version="1.1" xmlns="http://www.w3.org/2000/svg" xmlns:xlink="http://www.w3.org/1999/xlink">
    <!-- Generator: Sketch 49.2 (51160) - http://www.bohemiancoding.com/sketch -->
    <title>logo-full</title>
    <desc>Created with Sketch.</desc>
    <defs></defs>
    <g id="website" stroke="none" stroke-width="1" fill="none" fill-rule="evenodd">
        <g id="Desktop-HD" transform="translate(-586.000000, -450.000000)">
            <g id="logo-full" transform="translate(586.000000, 449.000000)">
                <g id="logo-text-white" transform="translate(57.000000, 92.000000)" fill="#FFFFFF">
                    <path d="M12.392,6.656 C13.7706736,6.656 15.0099945,6.94199714 16.11,7.514 L15.582,10 L15.34,10.11 C14.8999978,9.80199846 14.4160026,9.56000088 13.888,9.384 C13.3599974,9.20799912 12.8173361,9.12 12.26,9.12 C9.92798834,9.12 8.762,10.6526513 8.762,13.718 C8.762,15.3753416 9.06633029,16.6183292 9.675,17.447 C10.2836697,18.2756708 11.1746608,18.69 12.348,18.69 C12.8906694,18.69 13.4516638,18.6056675 14.031,18.437 C14.6103362,18.2683325 15.1346643,18.0373348 15.604,17.744 L15.868,17.898 L15.626,20.428 C14.5113278,20.9413359 13.3380062,21.198 12.106,21.198 C9.99398944,21.198 8.38433887,20.5820062 7.277,19.35 C6.16966113,18.1179938 5.616,16.3506782 5.616,14.048 C5.616,11.7013216 6.20632743,9.88267312 7.387,8.592 C8.56767257,7.30132688 10.2359892,6.656 12.392,6.656 Z M28.546,17.436 L28.656,21 L25.884,21 L25.994,17.7 L25.972,16.622 L23.486,16.6 L21.264,16.644 L21.242,17.436 L21.352,21 L18.58,21 L18.69,17.7 L18.58,9.89 L21.396,9.89 L21.308,14.29 L23.662,14.334 L25.95,14.312 L25.884,9.89 L28.7,9.89 L28.546,17.436 Z M35.13,17.436 L35.24,21 L32.468,21 L32.578,17.7 L32.468,9.89 L35.284,9.89 L35.13,17.436 Z M43.8700001,9.736 C44.9700056,9.736 45.996662,9.92666476 46.9500001,10.308 L46.4660001,12.64 L46.2460001,12.75 C45.9086651,12.5153322 45.512669,12.3320007 45.0580001,12.2 C44.6033311,12.0679993 44.148669,12.002 43.6940001,12.002 C42.7993289,12.002 42.1320023,12.2623307 41.6920001,12.783 C41.2519979,13.3036693 41.0320001,14.1213278 41.0320001,15.236 C41.0320001,17.6560121 41.9633241,18.866 43.8260001,18.866 C44.2660023,18.866 44.7206644,18.8073339 45.1900001,18.69 C45.6593358,18.5726661 46.0846648,18.4113344 46.4660001,18.206 L46.7080001,18.338 L46.4880001,20.648 C45.6226624,21.0000018 44.6766719,21.176 43.6500001,21.176 C41.8459911,21.176 40.4746714,20.6920048 39.5360001,19.724 C38.5973287,18.7559952 38.1280001,17.3626758 38.1280001,15.544 C38.1280001,13.6959908 38.6266618,12.2660051 39.6240001,11.254 C40.6213384,10.2419949 42.0366576,9.736 43.8700001,9.736 Z M55.0300001,15.126 C56.3646734,16.9153423 57.8166589,18.6753247 59.3860001,20.406 L59.3200001,20.736 C58.3226618,20.9853346 57.4133375,21.139333 56.5920001,21.198 L56.2400001,21.044 C54.7879928,19.1226571 53.4753393,17.2673423 52.3020001,15.478 L52.2580001,17.436 L52.3680001,21 L49.5960001,21 L49.7060001,17.7 L49.5960001,9.89 L52.4120001,9.89 L52.3020001,14.906 L55.3380001,11.012 L56.0200001,9.89 L59.0560001,9.868 L55.0300001,15.126 Z M69.2700001,18.756 L69.4460001,18.932 L69.2480001,21 L61.6360001,21 L61.7460001,17.7 L61.6360001,9.89 L69.3580001,9.89 L69.5120001,10.11 L69.3360001,12.156 L66.4760001,12.046 L64.4080001,12.046 L64.3640001,14.29 L66.3440001,14.312 L68.2580001,14.246 L68.4120001,14.444 L68.2360001,16.534 L66.1460001,16.468 L64.3200001,16.468 L64.2980001,17.436 L64.3420001,18.844 L66.2780001,18.844 L69.2700001,18.756 Z M82.2120001,17.48 L82.3220001,21 L79.3080001,21 L74.8640001,14.114 L74.7100001,14.114 L74.6880001,17.106 L74.7760001,21 L72.2680001,21 L72.3780001,17.744 L72.2680001,9.89 L75.2600001,9.89 L79.7040001,16.776 L79.9020001,16.776 L79.8140001,10 L82.3660001,9.824 L82.2120001,17.48 Z M103.696,14.994 L103.454,16.798 L100.616,16.798 C100.278665,18.2353405 99.6296717,19.3389962 98.6690002,20.109 C97.7083287,20.8790039 96.4653412,21.264 94.9400002,21.264 C93.1359912,21.264 91.720672,20.7433385 90.6940002,19.702 C89.6673284,18.6606615 89.1540002,17.2233425 89.1540002,15.39 C89.1540002,14.260661 89.3556648,13.2670043 89.7590002,12.409 C90.1623355,11.5509957 90.7306632,10.8873357 91.4640002,10.418 C92.1973372,9.94866432 93.0406621,9.714 93.9940002,9.714 C94.8886713,9.714 95.5743311,9.90466476 96.0510002,10.286 C96.5276692,10.6673352 96.7660002,11.1733302 96.7660002,11.804 C96.7660002,11.9066672 96.7586669,11.987333 96.7440002,12.046 C98.0200066,11.0779952 99.1419954,10.0220057 100.11,8.878 C101.078005,7.73399428 101.833331,6.56067268 102.376,5.358 L102.618,5.358 C103.190003,5.88600264 103.571333,6.50199648 103.762,7.206 C103.336665,8.21800506 102.508006,9.36199362 101.276,10.638 C100.043994,11.9140064 98.5920086,13.1313275 96.9200002,14.29 C95.2479918,15.4486725 93.5760086,16.3873297 91.9040002,17.106 C92.1533348,17.78067 92.5529974,18.2939982 93.1030002,18.646 C93.6530029,18.9980018 94.3313295,19.174 95.1380002,19.174 C96.2966727,19.174 97.194997,18.8036704 97.8330002,18.063 C98.4710034,17.3223296 98.8046667,16.2920066 98.8340002,14.972 L99.0320002,14.752 L103.52,14.752 L103.696,14.994 Z M93.9060002,11.584 C93.2019967,11.584 92.6446689,11.8956636 92.2340002,12.519 C91.8233315,13.1423365 91.6106669,13.989328 91.5960002,15.06 C92.5200048,14.663998 93.3779962,14.2386689 94.1700002,13.784 L94.1480002,13.784 C94.6906696,13.4319982 94.9620002,12.9920026 94.9620002,12.464 C94.9620002,11.8773304 94.6100037,11.584 93.9060002,11.584 Z M117.81,15.368 C118.954006,17.1866758 120.090661,18.829326 121.22,20.296 L121.176,20.626 C120.222662,20.963335 119.247339,21.161333 118.25,21.22 L117.942,20.978 C116.885995,19.1593242 116.028004,17.5753401 115.368,16.226 L113.234,16.226 L113.234,16.512 L113.366,21 L110.374,21 L110.528,16.776 L110.374,6.832 L115.808,6.81 C117.289341,6.81 118.43333,7.17299637 119.24,7.899 C120.046671,8.62500363 120.45,9.66265992 120.45,11.012 C120.45,11.9213379 120.219003,12.7536629 119.757,13.509 C119.294998,14.2643371 118.646004,14.8839976 117.81,15.368 Z M113.278,13.916 L115.456,14.004 C116.702673,13.5786645 117.326,12.6766736 117.326,11.298 C117.326,10.5499963 117.124336,9.98900187 116.721,9.615 C116.317665,9.24099813 115.698004,9.03933348 114.862,9.01 L113.366,9.098 L113.278,13.916 Z M126.506,17.436 L126.616,21 L123.844,21 L123.954,17.7 L123.844,9.89 L126.66,9.89 L126.506,17.436 Z M137.204,15.258 C137.981338,15.4486676 138.556998,15.7529979 138.931,16.171 C139.305002,16.5890021 139.492,17.1426632 139.492,17.832 C139.492,18.9466722 139.030005,19.7679974 138.106,20.296 C137.181996,20.8240026 135.810676,21.088 133.992,21.088 C133.18533,21.088 132.048674,21.058667 130.582,21 L130.692,17.7 L130.582,9.89 L135.048,9.868 C136.280006,9.868 137.24433,10.1099976 137.941,10.594 C138.63767,11.0780024 138.986,11.7746621 138.986,12.684 C138.986,13.2706696 138.832002,13.7839978 138.524,14.224 C138.215999,14.6640022 137.776003,15.0086654 137.204,15.258 Z M136.104,13.058 C136.104,12.6033311 135.946335,12.2880009 135.631,12.112 C135.315665,11.9359991 134.762004,11.848 133.97,11.848 L133.288,11.848 L133.244,14.466 L134.85,14.51 C135.275336,14.4073328 135.590666,14.2423345 135.796,14.015 C136.001335,13.7876655 136.104,13.4686687 136.104,13.058 Z M134.476,19.152 C135.180004,19.152 135.718998,19.0310012 136.093,18.789 C136.467002,18.5469988 136.654,18.1840024 136.654,17.7 C136.654,17.3479982 136.529335,17.0693344 136.28,16.864 C136.030666,16.6586656 135.649336,16.4973339 135.136,16.38 L133.222,16.424 L133.2,17.436 L133.244,19.086 C133.713336,19.1300002 134.123999,19.152 134.476,19.152 Z M146.494,9.736 C147.550006,9.736 148.561995,9.9193315 149.53,10.286 L149.112,12.75 L148.716,12.86 C148.246665,12.5079982 147.792003,12.2440009 147.352,12.068 C146.911998,11.8919991 146.508669,11.804 146.142,11.804 C145.731332,11.804 145.408668,11.902999 145.174,12.101 C144.939332,12.299001 144.822,12.5373319 144.822,12.816 C144.822,13.1240015 144.968666,13.376999 145.262,13.575 C145.555335,13.773001 146.01733,14.0039987 146.648,14.268 C147.308004,14.5466681 147.846998,14.8033322 148.265,15.038 C148.683002,15.2726678 149.042332,15.5989979 149.343,16.017 C149.643668,16.4350021 149.794,16.9593302 149.794,17.59 C149.794,18.2206698 149.629002,18.8109973 149.299,19.361 C148.968999,19.9110028 148.470337,20.354665 147.803,20.692 C147.135664,21.029335 146.310672,21.198 145.328,21.198 C144.799998,21.198 144.224337,21.1430006 143.601,21.033 C142.977664,20.9229994 142.37267,20.7506678 141.786,20.516 L142.16,17.92 L142.446,17.722 C142.930003,18.1620022 143.472664,18.5139987 144.074,18.778 C144.675337,19.0420013 145.210665,19.174 145.68,19.174 C146.090669,19.174 146.424332,19.0713344 146.681,18.866 C146.937668,18.6606656 147.066,18.4040015 147.066,18.096 C147.066,17.7733317 146.915668,17.513001 146.615,17.315 C146.314332,17.116999 145.84867,16.8933346 145.218,16.644 C144.557997,16.3653319 144.019002,16.1050012 143.601,15.863 C143.182998,15.6209988 142.823668,15.2873355 142.523,14.862 C142.222332,14.4366645 142.072,13.9086698 142.072,13.278 C142.072,12.6179967 142.251665,12.0166694 142.611,11.474 C142.970335,10.9313306 143.483664,10.5060015 144.151,10.198 C144.818337,9.88999846 145.599329,9.736 146.494,9.736 Z" id="Chicken-&amp;-Ribs"></path>
                </g>
                <g id="logo-name">
                    <path d="M222.357285,1 C244.526073,1 268,13.7377805 268,43.5 L1.56295116e-13,43.5 C1.56295116e-13,13.7377805 23.4739266,1 45.6427154,1 L134,1 L222.357285,1 Z M1.56295116e-13,43.5 L268,43.5 C268,73.2622195 244.526073,86 222.357285,86 L45.6427154,86 C23.4739266,86 1.56295116e-13,73.2622195 1.56295116e-13,43.5 Z" id="Combined-Shape" fill="#EC5555"></path>
                    <path d="M22.176,43.344 C22.176,39.7173152 22.8159936,36.4320147 24.096,33.488 C25.3760064,30.5439853 27.1253222,28.0266771 29.344,25.936 C31.5626778,23.8453229 34.175985,22.2346723 37.184,21.104 C40.192015,19.9733277 43.4026496,19.408 46.816,19.408 C50.3146842,19.408 53.6213178,19.9733277 56.736,21.104 C59.8506822,22.2346723 62.4533229,23.7599904 64.544,25.68 L55.2,36.944 C54.3466624,35.8346611 53.2800064,34.9920029 52,34.416 C50.7199936,33.8399971 49.2906746,33.552 47.712,33.552 C46.4319936,33.552 45.2373389,33.7759978 44.128,34.224 C43.0186611,34.6720022 42.0480042,35.3226624 41.216,36.176 C40.3839958,37.0293376 39.7333357,38.0639939 39.264,39.28 C38.7946643,40.4960061 38.56,41.8506592 38.56,43.344 C38.56,44.8373408 38.8053309,46.1706608 39.296,47.344 C39.7866691,48.5173392 40.4479958,49.5306624 41.28,50.384 C42.1120042,51.2373376 43.0826611,51.8879978 44.192,52.336 C45.3013389,52.7840022 46.4746605,53.008 47.712,53.008 C49.4613421,53.008 50.965327,52.645337 52.224,51.92 C53.482673,51.194663 54.474663,50.3413382 55.2,49.36 L64.544,60.56 C62.4959898,62.6080102 59.9786816,64.2399939 56.992,65.456 C54.0053184,66.6720061 50.6133523,67.28 46.816,67.28 C43.4026496,67.28 40.192015,66.7040058 37.184,65.552 C34.175985,64.3999942 31.5626778,62.7680106 29.344,60.656 C27.1253222,58.5439894 25.3760064,56.0266813 24.096,53.104 C22.8159936,50.1813187 22.176,46.9280179 22.176,43.344 Z M102.536,48.784 L90.1199999,48.784 L90.1199999,66 L74.8879999,66 L74.8879999,20.688 L90.0559999,20.688 L90.0559999,36.048 L102.472,36.048 L102.472,20.688 L117.768,20.688 L117.768,66 L102.536,66 L102.536,48.784 Z M132.336,20.688 L147.696,20.688 L147.696,66 L132.336,66 L132.336,20.688 Z M176.472,32.528 L176.472,38.096 L180.568,38.096 C181.634672,38.096 182.50933,37.8506691 183.192,37.36 C183.87467,36.8693309 184.216,36.1120051 184.216,35.088 C184.216,34.2346624 183.853337,33.5946688 183.128,33.168 C182.402663,32.7413312 181.442672,32.528 180.248,32.528 L176.472,32.528 Z M176.472,47.888 L176.472,54.032 L181.016,54.032 C182.210672,54.032 183.181329,53.765336 183.928,53.232 C184.67467,52.698664 185.048,51.9200051 185.048,50.896 C185.048,50.2986637 184.888001,49.8080019 184.568,49.424 C184.247998,49.0399981 183.853335,48.7306678 183.384,48.496 C182.914664,48.2613322 182.413336,48.1013338 181.88,48.016 C181.346664,47.9306662 180.845335,47.888 180.376,47.888 L176.472,47.888 Z M191.896,42.448 C192.962672,42.7040013 194.007995,43.1199971 195.032,43.696 C196.056005,44.2720029 196.973329,44.997329 197.784,45.872 C198.59467,46.746671 199.234664,47.7599942 199.704,48.912 C200.173335,50.0640058 200.408,51.343993 200.408,52.752 C200.408,55.226679 199.906671,57.3066582 198.904,58.992 C197.901328,60.6773418 196.578675,62.0426614 194.936,63.088 C193.293325,64.1333386 191.41601,64.8799978 189.304,65.328 C187.191989,65.7760022 185.026677,66 182.808,66 L162.264,66 L162.264,20.688 L180.888,20.688 C182.722675,20.688 184.674656,20.8266653 186.744,21.104 C188.813343,21.3813347 190.722658,21.9359958 192.472,22.768 C194.221342,23.6000042 195.671994,24.815992 196.824,26.416 C197.976005,28.016008 198.552,30.1173203 198.552,32.72 C198.552,35.1520122 197.944006,37.1573254 196.728,38.736 C195.511994,40.3146746 193.901343,41.4879962 191.896,42.256 L191.896,42.448 Z M227.584,67.28 C225.749324,67.28 223.946675,67.1200016 222.176,66.8 C220.405324,66.4799984 218.698674,66.0106698 217.056,65.392 C215.413325,64.7733302 213.866673,64.0480042 212.416,63.216 C210.965326,62.3839958 209.664005,61.4560051 208.512,60.432 L217.792,50.32 C218.858672,51.4720058 220.277324,52.4959955 222.048,53.392 C223.818675,54.2880045 225.642657,54.736 227.52,54.736 C228.373337,54.736 229.151996,54.5866682 229.856,54.288 C230.560003,53.9893318 230.912,53.4346707 230.912,52.624 C230.912,52.1973312 230.794667,51.8346682 230.56,51.536 C230.325332,51.2373318 229.909336,50.9280016 229.312,50.608 C228.714663,50.2879984 227.893338,49.9360019 226.848,49.552 C225.802661,49.1679981 224.490674,48.7200026 222.912,48.208 C221.375992,47.6959974 219.904007,47.0880035 218.496,46.384 C217.087993,45.6799965 215.840005,44.8160051 214.752,43.792 C213.663994,42.7679949 212.800003,41.5413405 212.16,40.112 C211.519996,38.6826595 211.2,36.9653434 211.2,34.96 C211.2,32.1439859 211.775994,29.7546765 212.928,27.792 C214.080005,25.8293235 215.562657,24.218673 217.376,22.96 C219.189342,21.701327 221.226655,20.7946694 223.488,20.24 C225.749344,19.6853306 227.989322,19.408 230.208,19.408 C233.194681,19.408 236.234651,19.9839942 239.328,21.136 C242.421348,22.2880058 245.141321,23.9519891 247.488,26.128 L238.016,35.792 C236.991994,34.5119936 235.73334,33.5413366 234.24,32.88 C232.746659,32.2186634 231.402672,31.888 230.208,31.888 C229.098661,31.888 228.20267,32.0479984 227.52,32.368 C226.837329,32.6880016 226.496,33.210663 226.496,33.936 C226.496,34.6186701 226.847996,35.130665 227.552,35.472 C228.256003,35.813335 229.397325,36.2399974 230.976,36.752 C232.597341,37.2640026 234.303991,37.8613299 236.096,38.544 C237.888009,39.2266701 239.541325,40.1119946 241.056,41.2 C242.570674,42.2880054 243.818661,43.6213254 244.8,45.2 C245.781338,46.7786746 246.272,48.7413216 246.272,51.088 C246.272,53.8186803 245.728005,56.1973232 244.64,58.224 C243.551994,60.2506768 242.122675,61.9359933 240.352,63.28 C238.581324,64.6240067 236.586677,65.6266634 234.368,66.288 C232.149322,66.9493366 229.888011,67.28 227.584,67.28 Z" id="CHIBS" fill="#FFFFFF"></path>
                </g>
            </g>
        </g>
    </g>
</svg>